/* XPM */
static char *_9959976a2384ea7f809d53dd7c84aa0CVoPmGsgApIS2sxy[] = {
/* columns rows colors chars-per-pixel */
"64 64 204 2 ",
"   c #020106",
".  c #02040C",
"X  c #03080F",
"o  c #020514",
"O  c #080610",
"+  c #040914",
"@  c #090914",
"#  c #02071A",
"$  c #040C1C",
"%  c #05111E",
"&  c #040D23",
"*  c #030F29",
"=  c #051324",
"-  c #091525",
";  c #061826",
":  c #0A1827",
">  c #05142C",
",  c #08162B",
"<  c #061A2C",
"1  c #091B2D",
"2  c #041632",
"3  c #081731",
"4  c #051B34",
"5  c #091D34",
"6  c #051D3B",
"7  c #081E3B",
"8  c #062135",
"9  c #092236",
"0  c #06223C",
"q  c #0A243C",
"w  c #04293E",
"e  c #0B293E",
"r  c #112236",
"t  c #132638",
"y  c #132C3F",
"u  c #051F41",
"i  c #062141",
"p  c #042341",
"a  c #052243",
"s  c #062343",
"d  c #052141",
"f  c #062442",
"g  c #052144",
"h  c #052245",
"j  c #072344",
"k  c #062547",
"l  c #052545",
"z  c #052443",
"x  c #0A2140",
"c  c #092443",
"v  c #082647",
"b  c #082545",
"n  c #092543",
"m  c #062944",
"M  c #0A2A44",
"N  c #052348",
"B  c #052649",
"V  c #052648",
"C  c #072648",
"Z  c #06274A",
"A  c #052549",
"S  c #05274C",
"D  c #052649",
"F  c #08274A",
"G  c #05284A",
"H  c #05284B",
"J  c #06284B",
"K  c #072A4B",
"L  c #06294D",
"P  c #052B4C",
"I  c #072A4C",
"U  c #062A4D",
"Y  c #05284D",
"T  c #072C4F",
"R  c #062C4D",
"E  c #062B4C",
"W  c #082A49",
"Q  c #09294D",
"!  c #082D4D",
"~  c #0A2D4B",
"^  c #122C42",
"/  c #192F40",
"(  c #102E4B",
")  c #07314E",
"_  c #0B314D",
"`  c #153042",
"'  c #12314C",
"]  c #1E374D",
"[  c #1A384D",
"{  c #1C3444",
"}  c #062D50",
"|  c #062C52",
" . c #052E54",
".. c #062E52",
"X. c #092E51",
"o. c #073153",
"O. c #073157",
"+. c #063254",
"@. c #0A3155",
"#. c #0C3157",
"$. c #0A3354",
"%. c #073956",
"&. c #0B3956",
"*. c #073259",
"=. c #06335A",
"-. c #05345B",
";. c #07355D",
":. c #06355A",
">. c #08335A",
",. c #08365E",
"<. c #0A355B",
"1. c #05385F",
"2. c #063A5D",
"3. c #0A3A5C",
"4. c #123654",
"5. c #1A3651",
"6. c #133954",
"7. c #1B3B54",
"8. c #123C5A",
"9. c #193C5C",
"0. c #213A4C",
"q. c #063761",
"w. c #083760",
"e. c #073D65",
"r. c #073C63",
"t. c #093D63",
"y. c #0A3D62",
"u. c #073E6B",
"i. c #083E69",
"p. c #113D61",
"a. c #09405F",
"s. c #13405D",
"d. c #1B435F",
"f. c #20415A",
"g. c #28465E",
"h. c #074166",
"j. c #0B4265",
"k. c #07416A",
"l. c #07436B",
"z. c #0A446B",
"x. c #0B496E",
"c. c #124364",
"v. c #1A4666",
"b. c #1C4864",
"n. c #11466B",
"m. c #18466A",
"M. c #134A6C",
"N. c #1A4B6A",
"B. c #074671",
"V. c #0A4671",
"C. c #074975",
"Z. c #0B4C74",
"A. c #0A4E79",
"S. c #124772",
"D. c #124D72",
"F. c #194E75",
"G. c #114F7D",
"H. c #0D5176",
"J. c #0C527B",
"K. c #145276",
"L. c #1A5273",
"P. c #12547B",
"I. c #1F5779",
"U. c #15597E",
"Y. c #1B5A7D",
"T. c #224761",
"R. c #274B65",
"E. c #2D4C64",
"W. c #284E6A",
"Q. c #2C506A",
"!. c #32546F",
"~. c #215172",
"^. c #2C5471",
"/. c #285977",
"(. c #215678",
"). c #225B7D",
"_. c #295B7B",
"`. c #355B76",
"'. c #41414A",
"]. c #414351",
"[. c #0B5581",
"{. c #0C5A85",
"}. c #145782",
"|. c #135C84",
" X c #195D84",
".X c #115E8A",
"XX c #1A5E88",
"oX c #245E81",
"OX c #166087",
"+X c #13618A",
"@X c #1D628A",
"#X c #1B6794",
"$X c #1E6B94",
"%X c #246285",
"&X c #22648A",
"*X c #20688F",
"=X c #2F6C8F",
"-X c #236F96",
";X c #296E95",
":X c #23739B",
">X c #2E739C",
",X c #3B799E",
"<X c #377CA5",
"1X c #95979F",
/* pixels */
"2 > < < > > < 0 h k Q f 0 Z i 7 7 0 0 0 0 4 2 4 6 6 i Z 6 0 v h 6 & 6 > & > u u i 6 6 6 6 6 n $ X $ > k H 6 > 2 & & & & $ 6 6 i ",
"4 Z 6 i N L Z H H Z k Z Z Z Z 0 4 } L L L } *.*.} } O.T 6 H H 4 > + & & > > > 2 4 4 2 2 > & Q #.} :.e.k.e.*.Z i 4 * & & o 6 6 6 ",
"2 ,.W 4 6 u k 6 6 6 4 4 6 i i > = @.v i i k H H Z L H @.L T o.f k = $ & > > & > 2 4 4 2 2 > 7 #.*.e.k.k.1.;.*. .Z 2 $ & > L h 6 ",
"h S 0 > 6 6 h h h h 0 6 Z L 6 > $ 6 4 i i 6 6 h v k W >.T L t.;.,.< & 4 6 4 2 4 0 i 6 4 4 > c q > } L i i H L k i 2 = & $ ! H i ",
"= $ $ = > > > > > > 4 > > = > = $ > 2 > = $ = > ; < 4 6 < = = % ; $ X = = = $ $ $ + o X     $ & X X + $ $ + X X X X X .   $ & $ ",
"m W ! n 5 5 4 > = = 4 T M m m T w.3.D.j.3.y.3.$.5 < 4 > > 4 6 = $ 4 6 i k 0 0 6 6 0 f 0 i 6 $ k Z h k L Z i h k k O.*.f O i 2 > ",
"r.i.:.;.e.*.*.O.r.@.M l.:.r.r.;.h.Z.J.Z.r.;.h.A.o.~ >.k i i i 6 i Z } L H k H } O.:.,.O.r.T 6  .k h i 6 6 Z Z k L } O. .= ! i 4 ",
"O.:.L Z } o.} O.k.X.M e.O.e.t.3.1.:.:.:.} 6 :.h.q n } 6 i f 0 6 6 6 i H i k f 6 > i f 6 6 > > } h i h Z Z i i Z h 4 2 } 7 ! i F ",
"*.O.e.;.H H ;.e.e.@.~ l.w.r.r.h.e.;.;.:.H i *.A.3.5 w.} } } k k k k L L H f 6 O.$.6 f T 2 & > ;.T k k  .*.}  .} i 6 6 6 &.$.k @.",
"+.$.$.3.3.$.$.3.3.8 = 5 < = ; ; = < = ; = > 8 m 0 , e 8 = < = = % % ; > = ; q ~ M M 5 8 6 $ $ ; = = < = = 6 5 < 4 6 6 q M.D.&.n ",
"= = + 6 $.M q q M _ F.3._ 3.! ; M _ ~ ~ $.%.) 6 q q 9 ; < 5 5 0 m m 0 0 f q n.3.) ~ ~ _ ~ ~ j.n.n.D.j.M 8.3.3.<.<.w.t.<.3.@.<.@.",
",.@.> } r.i.V.z.V.A.P.#X#X+XJ.O.r.1.Z.A.z.r.e.A.j.M w.L O.;.r.k.z.Z.z.x.t.n 3.Z.H.3.,.z.r.:.z.H.Z.Z.t.n.n.$.L } L T O.X.k Z } L ",
"L Z > 6 k *.e.k.l.k.V.|.XX@XK.+.r.r.e.k.1.O.r.l.n.8.0 L 1.r.z.Z.Z.x.j.j.y.M +.1.O.o.+.t.:.+.j.z.D.Z.y.M.D.x.3.@.<.T H v Q <.@.W ",
"k @.4 6 Z *.q.k.B.J.{..X.X$X@X) C.A.Z.Z.Z.C.Z.{.Z.~ +.r.C.z.Z..X$X-XP.j.Z.3.%.1.r.r.r.1.1.j.x.z.H.J.z.q D.Z.<.X.} u 6 6 0 k k Q ",
"2 f , $ = > > 6 0 m ! 3.3.x.M.M m o.$.~ _ M 8 w q - 4 T 2.j.j.M.%X/.d.b.M 1 N.d.&._ &.M.L.M.s.n.j.&.&.9.~ n > = = $ $ + + + + = ",
"5 5 q M 3 = < 6 0 9 ~ _ q q W 5 = q M n M q q 5 4.7.- 6.6.` [ s.4.t / d.8.N.6._ M ~ ~ 8.9.6.6.v.6.s.M.F.M.y.D.z.+.o.! m 8 % % = ",
"} } ;.h.<. .} ;.h.V.j.Z.D.y.@.@.<.O.} @.e.<.O.@.&.! q N.:X-X$X|.K.x.~ ! j.j.X.} L L o.T } 3.w.v.8.P..X[.{.{.J.A.[.A.C.Z.A.1.l.z.",
"Z } r.} } :.T :.h.h.t.t.y.n.3.y.1.:.:.t.z.@.L } M $.0 c.|.j.h.z.XXH.M.M.r.D.z.j.j.t.O.O.O.O.o.3.8.Z.A.H.H.Z.z.$.Z.Z.P.J.Z.m Z.Z.",
"} :.e.;.:.:.:.z.h.z.3.j.) &.@.$.! j.<.M @.k H +.3.o.' M.J.&X-X:X-X+XK.Y.[.J.J.Z.z.j.1.:.O.:.3.j.3.x.x.Z.Z.z.A.H.Z.J.{.[.J.+.J.A.",
"o.O.o.r.h.:.t.z.r.+.3.Z.5 0 <.c._ M 4 6 6 6 6 0 M ~ ] M.U.Y.&XY.L.K.8.M 3.h.$.) ! 0 0 m 0 m 0 0 5 x.z.3.%.3.3.&.3.! +.+.2.0 m &.",
"+ + $ + % < < > 1 8 5 < < , - 1 y 5.5 = r ^ 5 5.7.E.Q.q M y y { 0./ T.[ ^ ^ ' q = 5 5 5 1 = $ = 5 q 4 > > = . % 5 3 ; = ; ; ; < ",
"2 > > = _ z.L T ! 3.t.3.x.D.z.j.z.z.Z.z.D.z.z.c.K.6.3.}.|.&X&X>X<X@XXXP.|.K.z.K.p.z.j.:.o.H Z <.,.L Z H L 6 > w.h.r.V.k.1.,.Z.V.",
"> & 4 p.M.z.:.m k T 1.j.z.t.3.2.2.t.x.Z.J.Z.z.r.h.M.).J.U.OXXX&X@X-X@XD.Z.Z.z.j.~ +.) T H H P <.T k k m i 0 > 3.k.e.z.k.h.1.j.z.",
"L L } c.n.3.o.0 6 H T } h.t.3.3.3.3.z.z.Z.x.3.j.x.N._.J.z.P.K.D.).;X@Xx.h.:.z.M.q o.T T ......O.T T H L H T 0 ! w.;.L } O.H f <.",
"2 6 k &.n 3.$.3.o.) +.$.3.3.h.3.3.3.$.3.2.&.) $.3.8.7.@X}. XY.&X=X,X>XZ.:.L j.N.q +.:.t.<.<.<.y.e.3.t.t.+.@.5 ~ w.:.j.o.o.H H ! ",
"9 q _ #.&.~ &._ &._ ~ 4.c.8.&.$.q q 1 % < 9 q q q T.^.f.g.T.R.`.!.E.W.d.( 1 , e , + $ % + % $ $ % = = = q M M ~ M n.s.&.q 9 9 9 ",
"e.3.+.~ n.&.+.+.! &.+.$.z.j.j.j.c.n M M.M.D.F.K.L.).oX(.oXI.).~.~.L.n.N.D.D.M.L.L.s.$.) &.1 1 _ M ~ ~ $.n.c.8.6.&.~ 4.M 3.t.j.x.",
"T O.} 5 3.H k H o.o.O.o.3.+.o.+.+.~ _ |.Z.Z.Z.H.H.H.K.Z.P.U.P.M.z.J.Z.Z.U.|.@XU.K.H.z.z.3.q 0 f H f 6 0 m $.! f m 6 i ~ z.Z.l.h.",
"6 Z 0 8 <.T <.<.k.h.e.3.r.t.3.t.:.3._ H.Z.Z.Z.Z.Z.H.H.K.Z.Z.P.M.M.Z.k.x.Z.x.K.|.P.x.z.j.2.5 0 m m +.m f ! m 0 0 6 0 f f z.z.1.+.",
"6 i i 8 z.;.h.Z.z.Z.Z.z.J.A.Z.Z.J.j.p..XH.H.Z.Z.Z.Z.Z.H.H.P.|.j.x.l.l.Z.Z.Z.}.}.J.z.t.1.r.0 &.@.$.o.T k H ! k 4 4 f k n Z.k.k.2.",
"1 < = < $.T ! &.%.%.j.3.) m M q 8 q M &.8.&.&.&.) m o.3.j.n.j.o.T H H o.) +.&._ %._ 0 ; 8 > _ 6._ M 0 0 0 6 6 4 4 5 5 6 M H 8 8 ",
"> 0 i W 0 0 f 0 0 0 +.3.~ M M n 6 ~ 4.0 ( &.~ : = q 0 0 m %.3.2.T 4 6 6 4 ~ _ m m 0 0 0 8 0 ; < ; = % 8 9 5 < q 8 = $ > 7 _ _ M ",
"2 6 6 4 i } e.e.l.Z.j..XH.z.:.} @.@.+.3.t.t.3.M = _ &.3.x.U.|.x.%.o.+.+.0 ) H.A.Z.x.k.J.J.J.{.Z.l.k.3.D.3.3.t.3.! W ! 3.:.w.z.3.",
"i 6 6 k L :.:.1.k.z.~ }.Z.3.T f M m 1.j.h.3.t.&.$ q m m 3.M.j.j.z.+.+.j.) M t.x.Z.J.Z.J.U.|.P.Z.z.2.3.Y.3.x.M.3.3.) $.3.o.X.z.M.",
" .*.;.k.B.C.B.k.l.e.+..XZ.Z.h.3.;.;.O.*.;.@.w.~ $ 6 m m &.x.H.J.J.2.+.3.M ! z.3.3.w.Z.|.+X}.J.Z.l.+._ K.3.o.+.+.3.<.i i H k o.y.",
"$ > 0 m ! ! ) m m f 1 t.c.M.y.3.T i 0 0 f f f 5   q m 0 %.j.K.P.x.z.%.M 4 5 :.H @.3.t.z.x.Z.j.1.1.o.9 %.~ n n M f q q q 6 > 4 n ",
"= < % + + + $ % = % = = = % = = = 1 ; ; , ; % 5 v 1 ; 1 1 1 e q M 5 = % , = - = = = = 5 9 ; 5 < = % + X . + X + + . . . X X + $ ",
" .O.4 6 H Z Z Z Z Z L } Z o.z.3._ |.H.Z.Z.,.L *.t.h.x.D.M.c.P.h.3.<.$.j.x.D.K.&XU.&.&.3.3.a.3.&.m m m 0 5 8 ) m 4 3.z.r.2.r.j.j.",
"T T > 0 H Z i i i 0 Z Z 0 H ,.+.3.Z.e.r.L k k } k h.e.j.D.c.x.W 2 i e.H.h.} :.t.x.j.3._ &.z.h.3.+.%.) 3.n.%.2.+.5 %.Z.x.k.e.1.3.",
"k H 4 H i H T 0 6 i k H W } e.&._ G.x.3.T T @.e.3.j.+.<.x._ t.X.q 6 <.x.3.t.n.z.x.3._ m M 0 3._ M &.&.$.3._ m M , _ z.r.r.1.2.$.",
"H f 4 f 0 6 4 > > > 4 6 k 0 <.M M n.j.t.<.<.>.>.<.T T <.y.~ t.t.3.j.H.c.t.Z.Z.Z.H.3._ ~ 0 ~ 0 ~ _ c.3.3.&.! ) M 9 ~ h.h.h.r.1.+.",
"= > , $ % $ X     . = = = q 1 n n ; 5 q q q 5 > < 7 q 9 M ~ q q q 8 8 M 8 5 0 8 ; 8 < ; 9 q 9 1 % e _ M M q 9 e 1 = ; 1 = % = $ ",
"L >.,.t.@.W w.W 4 v X.,.@.j.A.}.P.Z.Z.Z.D.c.j.+.! <.$.$.t.j.z.D.Z._ % e q e ~ _ 6.c.M.n.3.8.c.~ 1 ~ j.<.+.~ ~ M W ~ M ~ _ v < _ ",
"O.} } ;.,.w.V.y.L } Z L T L 1.3.r.h.1.t.j.3.e.o.T } 2.x.J.D.}.H.Z.j._ 3.j.D.Z.Z.Z.K.z.j.z.j.j.+.&.h.Z.z.h.h.h.e.e.h.e.e.h.k.< z.",
";.;.*.r.,.t.k.Q H w.:.p Z L } +.w.w.,.t.e.y.3.} o.T :.:.J.|.U.Z.x.j.q &.+.! _ +.$.3.3.:.x.Z.K.j.n.z.z.:.:.r.1.:.1.1.:.L T +.= w.",
"i.r.q.O.} 1.k.q m k.e.r.} } i.Z.Z.Z.h.3.m ~ x.} } H k 3.x.z.1.1.%.) ~ _ ! 6 6 0 k ! +.z.x.H.|.M.&.T r.+.:.:.;.:.} L k L T f $ 3.",
"0 6 > 6 f q 5 $ ; 8 1 < ; ; 5 0 0 q m % = 5 $ = = = = = ; ; = 5 9 M ~ q = & $ = 4 0 0 m _ M _ _ 5 > 8 5 = = > = = > = $ $ $ $ < ",
"#.#.n + 6 > > 0 n = ; = $ = 6 W +.M q v ~ ~ ! n 0 0 6 6 4 < , q 6.8.> - 5 ; 8 8 < > 5 9 ~ q 5 ' 9.m.3.w.p.&.<.! v q 5 q 3 > n.p.",
"w.S.&.= H L H H O.*. .O.} O.L ! e.<.v 6 i } } } } O.O.L k 6 = > & m 3.q H w.t.3.o.:.e.h.j.w.3.M ' 9. .q.u.u.u.u.r.-.O.i.0 M }.n.",
"h ,.X.4 L o.O.*.O.T O.} m Z L f H 0 0 H <.,.} k m T :.H T f = 4 0 +.j.! :.1.+.+.o.m t.O.T T :.q = 0 Z }  .*.;.;.*.*.;.w.W &.z.<.",
"F ,.X.>.w.h.Z.V.z.z.k.;.} H } } :.0 m } } H k k 1.:.O.:.1.T = ! t.h.&.M 1.o.T H f 6 0 H ! f O.0 6 k Z Z L  .*.*. . .} w.&.w.w.X.",
"$ = 6 > = 6 n 0 M ! H v W 0 ; 0 0 ; 1 f 0 6 0 f m ! _ ! ~ M > 1 8 0 e 1 6 m 0 0 m ! 0 m k 0 < + 6 f 0 0 0 0 0 f f i 0 H X.X.X.$.",
"$ 4 v 6 4 7 6 6 4 5 7 7 2 q v = = 4 > > 4 5 < 4 4 4 6 = q _ 3.~ e ~ &.&.~ ~ 0 8 = > i 6 4 > & 6 > $ & & + & > & # > > > 6 2 > > ",
"2 2 h Z h i i S h 6 2 2 2 6 v h 6 h k k i k H H Z Z k 6 o.+.:.1.j.z.l.j.1.z.<.2.0 . 6 } H h 2 6 6 2 > * & 2 u 6 > u u 2 $ $ & & ",
"W 2 4 2 2 > 2 6 i i 6 4 6 > 0 i i 6 0 k H i 0 0 f 0 i = f f 0 T +.T o.+.m h.z.:.1 % 4 0 6 4 4 2 > * & & = & 2 > 6 } h u > $ $ , ",
"q 2 2 * > > 2 2 6 Z Z 6 h 0 0 Z 6 i 6 6 6 6 i 6 i 6 4 = 0 6 0 i m T L :.2.j.t.f $ = > 2 > 2 > 2 > > > & > > 4 $ i i > > & & & > ",
"q > & & $ $ $ > > 4 4 4 > > 6 i 4 4 < 4 4 > 4 6 5 4 < % 4 6 6 > = > $ 0 ! ! m > M n > 2 > & & = & > > & > $ > & = 2 > $ $ o o & ",
"7 6 7 v n 4 6 c c 5 > < v W 5 q 6 > = & = 4 = $ X   X $ = 1 > = $ 1 5 = > 5 M n 3.w.>.<.&.@.>.X.v @.>.<.@.7 c >.X.,.,.| Q v 6 6 ",
"4 6 h L h Z Z 4 F Z S L } Z 6 6 6 6 6 6 4 c $ o & # o & & > 6 > & = ' v O.} 2 4 4 4 h *. .} } c i > 2 H T Z X.@.} H > & o + & 5 ",
"2 6 2 > 2 2 * o 2 2 6 4 4 4 2 2 6 6 4 4 4 > o $ # # $ & & > 6 > & o & 6 i f > > 2 > > > i 4 > > & o # > 4 2 6 0 0 4 # @ '.@ o 1 ",
"> > & # $ $ # o 2 2 2 2 2 2 4 4 4 6 6 6 6 > & & 2 & $ & > 4 6 > $ $ > 4 2 6 6 6 4 6 6 6 > 2 4 2 $ $ $ * & > $ # & $ o ].1X'.. 5 ",
"o # # o .     o & 6 6 4 4 > 2 = > > > = # & > $ o . o o $ & > $ # $ 3 4 > & & > > 4 i 6 > > i $   o o & > & > > 2 > . O '.@ . + ",
"# + X o + + $ > = $ = = = & = 4 > 6 X.W ! ! f k H T f v W c > $ + % 5 $ + + $ = 6 4 4 < = 5 5 6 q < > = & = 2 > $ $ = = = > 6 6 ",
"L k & $ $ & > 4 2 4 > > > > 2 i X.X.X.,.w.k L ,.e.} i k k 5 X $ $ > 6 0 6 > > 6 i 7 i } 7 c v X.<.3.T H H  .L L i $ F } W Q H W "
};
