/* XPM */
static char *_1b00b1864c54250bd2084bbf903b69eHgZ9J8EEwhc3qNUB[] = {
/* columns rows colors chars-per-pixel */
"64 64 202 2 ",
"   c #020402",
".  c #030B06",
"X  c #040E09",
"o  c #041207",
"O  c #04150C",
"+  c #051B0F",
"@  c #041511",
"#  c #051D13",
"$  c #091D15",
"%  c #051F19",
"&  c #052315",
"*  c #092315",
"=  c #062A16",
"-  c #05251A",
";  c #09241B",
":  c #052B1C",
">  c #092B1C",
",  c #06321E",
"<  c #09331E",
"1  c #042620",
"2  c #082620",
"3  c #062D22",
"4  c #092C22",
"5  c #053423",
"6  c #093424",
"7  c #063B25",
"8  c #093B25",
"9  c #063629",
"0  c #093529",
"q  c #063C2B",
"w  c #093C2B",
"e  c #123C2B",
"r  c #073E30",
"t  c #0A3E31",
"y  c #064227",
"u  c #084226",
"i  c #05432C",
"p  c #09432C",
"a  c #064A2D",
"s  c #0A4A2E",
"d  c #11412D",
"f  c #07532E",
"g  c #034633",
"h  c #034531",
"j  c #044430",
"k  c #064430",
"l  c #044532",
"z  c #044731",
"x  c #034634",
"c  c #064735",
"v  c #054634",
"b  c #064432",
"n  c #0A4432",
"m  c #034933",
"M  c #054830",
"N  c #034934",
"B  c #034B35",
"V  c #044935",
"C  c #044B34",
"Z  c #054936",
"A  c #044B36",
"S  c #044B37",
"D  c #064B36",
"F  c #034D37",
"G  c #034C36",
"H  c #034F37",
"J  c #034F36",
"K  c #034E35",
"L  c #044D36",
"P  c #044E37",
"I  c #064B34",
"U  c #094836",
"Y  c #084C36",
"T  c #0A4B34",
"R  c #0E4538",
"E  c #034D38",
"W  c #044D39",
"Q  c #044C39",
"!  c #054F39",
"~  c #054F3B",
"^  c #064D39",
"/  c #0B4E3C",
"(  c #0A4D3A",
")  c #134532",
"_  c #134C34",
"`  c #1A4B37",
"'  c #104738",
"]  c #124C3A",
"[  c #065136",
"{  c #065334",
"}  c #0A5235",
"|  c #075935",
" . c #085A36",
".. c #03513B",
"X. c #03513B",
"o. c #035138",
"O. c #05523A",
"+. c #03513C",
"@. c #04513C",
"#. c #05513C",
"$. c #04533D",
"%. c #04533E",
"&. c #05543E",
"*. c #04553F",
"=. c #05573D",
"-. c #06533B",
";. c #0A533C",
":. c #05593F",
">. c #065B3C",
",. c #095B3C",
"<. c #105035",
"1. c #13543D",
"2. c #1A503D",
"3. c #11593D",
"4. c #06623E",
"5. c #09623D",
"6. c #075240",
"7. c #055640",
"8. c #065640",
"9. c #0B5541",
"0. c #045B42",
"q. c #075B43",
"w. c #065B41",
"e. c #045C40",
"r. c #055D43",
"t. c #065E46",
"y. c #055E45",
"u. c #065C42",
"i. c #0A5B43",
"p. c #045F49",
"a. c #0C5F49",
"s. c #135642",
"d. c #1B5541",
"f. c #145C43",
"g. c #195A44",
"h. c #125F48",
"j. c #1A5D49",
"k. c #255D4B",
"l. c #046345",
"z. c #066245",
"x. c #066347",
"c. c #056446",
"v. c #066343",
"b. c #096444",
"n. c #066A45",
"m. c #096A45",
"M. c #07654A",
"N. c #086349",
"B. c #0A644A",
"V. c #056B48",
"C. c #06684C",
"Z. c #066C4C",
"A. c #076C4B",
"S. c #0A6C4C",
"D. c #126245",
"F. c #13654B",
"G. c #1D634D",
"H. c #116C4B",
"J. c #097147",
"K. c #06734D",
"L. c #09724C",
"P. c #077A4D",
"I. c #09794F",
"U. c #10764D",
"Y. c #076D50",
"T. c #0C6C51",
"R. c #166551",
"E. c #186751",
"W. c #116E52",
"Q. c #1C6E52",
"!. c #077452",
"~. c #0A7353",
"^. c #067A53",
"/. c #097B54",
"(. c #077D59",
"). c #0A7C59",
"_. c #157052",
"`. c #107956",
"'. c #107559",
"]. c #1E745B",
"[. c #266552",
"{. c #226954",
"}. c #43554E",
"|. c #435651",
" X c #06804D",
".X c #068256",
"XX c #0C8054",
"oX c #068259",
"OX c #0B845C",
"+X c #0B8C5B",
"@X c #13845F",
"#X c #088760",
"$X c #078B61",
"%X c #0B8C62",
"&X c #0F8F68",
"*X c #148563",
"=X c #0B9263",
"-X c #099867",
";X c #099569",
":X c #0B9B6D",
">X c #0AA071",
",X c #95A09C",
/* pixels */
"i i 7 5 5 5 9 i K X.@.D i D h i i i q 7 7 5 5 5 7 q i q 9 7 q i i : q 5 5 q i i h h h i h h q .   . ; 7 7 5 q q 5 3 5 5 5 a a [ ",
"q E i q X.+.X.[ o.K K L K K K j q &.@.+.X.7.t.u.&.7.>.X.h D D i 7 # : 5 5 q 9 7 q q q q 5 7 6.D l O.z.Z.B.W i q 9 5 3 - - 7 7 i ",
"q &.Y 9 l N L i i i q q l j l 5 3 / v N N D W W D W @.@.E W 7.D j : : 3 5 5 5 5 q q q q 7 5 v t.t.z.V.Z.z.>.W D q 3 - - 3 i 7 9 ",
"K O.q 5 l m K L L K M i D W D 5 > l q h x h h D L W @.&.+.@.x.u.q.5 5 7 i q q i h h i i q 9 U v D q.c.q.&.e.q.@.h 9 5 : q >.i a ",
"= # # = 5 , 5 5 3 > 5 : > > , = - 5 5 > = & - > , 5 9 q 5 - - - > # O - : : = & # # + O X O 6 # X O O # & & & # @ O o o + 5 , = ",
"{ I | { i q 7 7 7 5 5 { I M M | n.v.K.Z.u.n.u.&.> 5 5 5 5 5 5 : = 5 q q i i 9 5 5 5 , 5 5 = - 5 3 3 5 7 5 - - - - 4 - X & 0 - > ",
"n.n.n.n.n.4.>.>.v. .p A.v.c.c.z.n.^.oX(.z.u.x.!.D M q.D D N N N l W @.W K N L &.&.&.:.>.t.l q 6.~ O.K D D E @.+.q.p.x.5 5 W 7 q ",
"4.4.>.| | >.| >.n.| T n.>.x.c.v.v.v.v.u.-.M >.n.p i &.i D D M l l j D W h D M i q W D h l 5 0 D l j j j v v v D v j D j q @.n t ",
"n.v.n.n.>.| >.B.n.| { K.v.n.n.n.n.n.c.>.[ M >.K.i.8 >.| -.[ L L M D o.L D l i [ D i l l 9 - w 7.W D D @.@.W W D j 9 q j U ( U s.",
"| 5.5.5.5.5. .,.5.p > 7 6 > , > 5 5 5 , : , q M 9 & w 5 : , : = = = = : : : 6 _ } p 7 w 5 & & 5 , > 9 7 q q q 5 5 5 3 w R.s.U R ",
"& & O : w p 8 = > T F.} } } 7 & w s s T } } i > 9 7 = & & & & = > > 3 5 = 8 D.p 6 0 , , 5 8 s p l T 9 = 0 i 7 7 w n ' j.E.a.;.( ",
">.} 9 I n.A.Z.~.^.(.OX-X+X+XP. .x.n.K.K.Z.x.c.~.i.8  .I [ O.>.>.c.V.V.v.>.p n.L.~.c.n.L.c.c.^.OX^.(.b.n.m.u.q.u.9.i.i.7.;.~ 9.i.",
"L } 5 7 } u.n.Z.~.Y.!.=X=X=XXX[ t.v.n.K.v.>.4.c.,.} T i @.q.V.Z.L.K.n.V.,.p ,.x.u.[ [ v.>.,.A.K.^.K.n.L.x.>.O.O.| | } ~ D ;./ ( ",
"D ( 9 i L q.Z.Z.!.^.(.oX$X:XOX} V.Z.Z.Z.V.c.K.^.L.,.i -.u.u.Z.(.(.^.K.A.n.} | >.-.>.>.>.>.,.m.A.~.!.>.b.J.A.v.v.>.I M M L W ~ n ",
"D 9.7 , a O.>.x.!.(.(.oX#X;X;X5.K.^.^.K.L.L.Z./.m.8  .t.~.L./.;X>X:X(.A.5.s i.b.n.n.v.,.n.m.m.L.^.^.,._ m.i.M M i 7 q q i i l ,.",
"& : : & + # # & - = 5 9 5 i } 8 & 5 7 , , : & & > 6 # i i q 7 a v.3.` 1.< > ) e 8 8 U b.m.,.} { s p ,.,.p , > - # O + O .   . # ",
"q n D ,.T q w w n n ;.s.( 8 w w 0 w n n U t t n ( <.6 ,.H.D.H.m.;.d ) _ 3.F.Y L n w q Y T ( s.f.} Z.^.K.K.A.^.Z.z.v.;.,.n 0 9 w ",
"@.q.x.C.b.u.-.9.x.Z.A.S.H.i.;.9.9.9./ ;.i.9.D L T p 8 5.%XOX/.m.I.m.{ } ;.,.O.L v D D M W &.9.f. .(.oX.XoX(.L.!.^.!.!./.L.n.I.A.",
"O.O.z.i.O.>.} b.Z.K.Z.B.9.i.9.i.O.9.9.9.i.} D W M ;.8 ,.K.n.A.I./.m.L.L.x.Z.A.B.B.9.W O.W L L i.;.Z.Z.K.!.K.n.n.K.(.OXoXv. .(.v.",
">.u.V.~.C.x.x.~.Z.Z.x.~.] U i.b.;.;.Y n v l l v L l p n./.=X:X:X&XOXn.H.!.~.B.c.v.q.7.@.O.>.W } I K.K.K.L.K./. XK.~..X.XL.n.OXL.",
"q n p Y } U Y } T i p } 8 : w p R R 4 4 5 0 5 0 R 2.g.T } s Y s 0 U e * > 6 6 4 ; ; - - ; - ; O & w 7 9 7 5 = , 6 & , , 6 = 0 0 ",
": : : # # w 9 5 8 w w 5 w n w n ] F.] n s.1.} s.f.2.f.1.s D.f.Q.].f.H.H.f.s.f.9.U D D U j 9 q j l 7 5 w w - # p T i i q p T ;.} ",
"9 5 7 q ;.W.z.>.-.>.n.A.C.C.B.B.B.i.S.~.A.x.n.x.x. .,.K.OXOX%X;X;XoX^.~.~.~.C.B.O.q.&.W l j v ;.D v n M l 5 u m.>.v.~.c.v.A.^.S.",
"q 9 i i._.x.>.{ l a I { v.,.[ } O. .v.Z.K.K.v.>.4.F.].B.C.T.B.Z.Z.).T.9.B.t.a.;.w W D D v j v D i l i l l q q 9.i.>.-.>.i.-.x.n.",
"W L D i.F.A.-.Y i n Y } v.v.} -.>.,.i.>.x.m.} ,.n.v.f.~.B.T.B.A.#X&X).i.O.L F.f.8 L O.@.@.W W &.O.W O.O.W n 7 ;.u.O.} ;.>.T } i.",
"5 5 q ;.p ,.,.} } T T }  .;.} T T T T T p i i l M ;.( S.S.Z.L./.`.*X*X9.9 5 _ _ : q i M M p T n n M T T p w q ( } i.,.} } } T T ",
"n R ] ;.3.] 3.1.} 1.( ;.f.f.<.T R 6 = 6 6 w w w n j.{.d.d.s.G.[.k.d.d._ w 6 : 0 4 + O O # X + & # & = 5 n U 9.Y U D.,.T T p p s ",
"&.9.9.8 ;.} T T T T } } ,.,. .,.,.p p OX~.T.L.~.T.~.~.B.T.T.T.h.i.B.i.i.C.~.(.).^.n.>.>.,.0 t Y M l M L ;.,.} ;.M i U { J.K.K.H.",
"q v U - T D M a  . .,.,.,. .{ } Y U p T.B.C.C.x.B.T.C.B.i.q.a.s.9.i.9.i.a.B.^.~.K.A.v.i.I 5 i l l M i i l a i j i 7 p { J.n.5.,.",
"j v v > ;.&.,.,.,.n.n.c.n.n.n.V.A.9.} ~.C.Z.C.C.x.z.z.z.x.B.R.1.;.9.9.i.t.a.~.~.x.u.>.>.} 5 { | -.-.[ L [ a l q i a w T L.n.5.} ",
"q 5 3 & ] ;.} ,.} ;.i.9.,.} ( T p p p b.,.>.,.;.L L O.} 9.i.9.w q j v W ( ( } } ;.Y i 7 7 > } } T U q 7 7 7 7 5 9 7 8 p | { i p ",
"3 3 5 7 5 5 8 5 7 w 0 U n t 7 5 4 5 p 6 8 p w = = 6 5 , 5 i i q 5 3 : > 3 0 0 5 7 5 > & = , = = = * & : , 7 > , , = = 5 9 u 8 6 ",
"q i i q l W q.u.z.B.} ~.Z.t.&.D D ;.;.&.&.( ( 7 * p T T >.x.x.O.i i i l 9 Y B.x.t.t.>.B.V.L.K.n.4.{ 5.n.} T { T a a T [ } ,.9.p ",
"q q 7 q j W q.u.z.A.| ~.Z.q.W r n v W q.q.q.7.w $ w s i [ i.>.O.~ D M ( i U ;.9.i.B.i.C.!.^.L.n.v.T H.T.>.A.5.,.>.| i.>. .5.K.} ",
"D W L -.q.t.u.z.B.B.p ~.T.u.9.( ( W W @.@.~ ;.p * 5 p q T ,.v.B.b.I M O.q r W ;.;.q.V.!.^.K.Z.n.v.T m.Z.-.-.[ [ ,.I a M i T v.} ",
"j j D q.b.v.v.i.,.;.8 T.T.'.T.i.&.W v v D v D 5 o 8 T i T m.I.!.L.c.9.L 9 j &.v @.q.C.~.!.Z.n.n.v.I { i.L M I M L { T v q 7 T U ",
"O O @ # # # # & & # + : 6 w 5 5 : ; % ; ; - ; & + ; = * : , 7 7 p q 3 & # + # # = 5 5 5 5 5 5 6 > # & & + # + # + X O O O o # = ",
"D U w 3 5 5 9 7 7 q q q 9 5 n w 6 9.W O.( U q l } n p l n q Y U q q 0 w n R ] s.T , 8 p y y i 7 , , & + & = = = : p 7 7 8 8 p s ",
"&.@.j 7 v b j b b j v D v ( @.Y ( T.x.t.&.L l D D q.x.C.b.,.x.&.W W u.B.q.7.b.~.K.>.{ { >.4.>.| { { { | {  .4.[ p U.P.J.J.n.m.b.",
"M W q w n r j j r q j b r j / n ( a.;.D j v v ;.v 9.;.&.i.;.} 7 5 3 / B.;.( ;.W >. .Y a } { { a f { f 5.5.| } s 7 m.A.m.,. .{ } ",
"O.W p l l l L j r b v v D ~ 9.} U Z.B.@.D ( ( ;.9.q.O.W 9.D -.W ( L q.i.,.b.x.x.m.T s i p p s a { 5. .| { { { a u 5.x.v.5.,.,.} ",
"q 5 4 - 5 5 - - 2 ; - 4 5 5 9 4 w U v D U n i i j q j D U 8 I M M 9.i.9.} ,.b.n.v.a 6 7 p p , p s } } } } Y } T <  .4.>.| { a p ",
"> 6 w 0 3 : > $ X # 0 q 9 U U U ( 7 w w w 6 0 3 6 5 w 9 w R w w p ; # > # + & = = 5 w 6 < w p & + p p 8 8 8 , < = = = & & & & = ",
"&.9.9.i.9.} v.i.j ( ~ 6.@.u.T.T.Z.C.B.B.i.i.i.U U D &.9.t.B.A.T.T.Y 5 T T } ,.4.n.x.L.m.,.v.,.T s  .n.4.,.} }  .,.;.i.b.b.p s S.",
"7.@.W ;.9.9.b.;.v ( ( l l v D @.@.@.&.i.;.Y ( U l O.i.B.Z.~.~.x.x.-.i }  .9.>.4.4.n.>.>.n.m.n.} } x.c.>.>.>.>.i.>.>.>.-.x.p p ~.",
"7.7.&.;.@.-.b.( q ;.;.v j U ( ;.9.u.9.b.;.( 9.D U i M -.m.L.m.v.B.T , I a i i M I { { >.,.m.m.i. .u.>.| >.>.>.-.-.&.[ [ >.9 p T.",
"z.9.9./ ( ;.9.p 6 n.>.-.L W 9.B.A.L.B.D 0 i W l j i i I ,.,.{ [ l p w Y i 5 w q i I  .n.Z.I.^.i.7 M [ M M L W M i i i M l > 6 B.",
"5 9 5 = 6 0 4 & & = & & & & = > , 5 w & > 0 & - % % # # # # & , w n 8 > & # # - , 6 0 8 p 8 p p 5 5 5 3 = : = = > > = = - & > 6 ",
"&.9.;.= 6 0 5 p s w 9 5 , 5 9 p ( p 0 n U ( ( n p p w q 5 6 = 8 T T , < 8 w p p 5 7 q T } p T T 3.9.@.9.i.>.>.} M i i l : ( A.} ",
"l 9.i.7 w Y I I -.>.[ [ I I M M ;.( q j D } ( U I { T a i 7 : , , T } p } |  .-.-. .>.>.-.[ } 6 ) ( O.q.u.t.z.z.q.q.i.9.5 A.v.9.",
"q ;.9.w i { >.} -.| | [ M i i i U 8 i D ;./ D i I { { { { i > 7 a | | a } { { { a i { I M a Y > 5 j l D W O.@.@.@.@.7.q.l 9.9.;.",
"7 ;.( } ,.i.m.A.m.m.u.>.} i T ( ;.8 n Y l i l L | | | | | a , T -.b.} a { a a a i 7 y M a i n 6 n b v v D L W O.O.O.9.i.} 9.L ;.",
"# # > 6 & & , 5 7 8 w w w w > ; > * > 0 0 8 8 8 8 p p i a u < 6 6 6 < < 7 7 8 8 8 p 8 8 8 8 - & 0 6 5 5 5 5 9 9 7 q p 5 U j n t ",
"2 4 n n 7 q w 0 0 0 0 5 3 w ) 3 5 5 6 > 6 6 6 6 6 6 6 > s T } } s } } } } s y 8 * > w 5 5 5 : 5 & - - - & ; 4 2 - 3 3 4 6 > > 2 ",
"q 5 q l j q q q 9 9 5 5 3 0 p i q q q i q i q i i i i < p a a { >.4.>.{  .4.} ,.= O 7 i q 9 5 9 5 5 > = : 5 q 5 9 q 7 9 4 - 4 4 ",
"U w 3 3 5 5 3 9 r q q 9 9 4 w 9 q q 7 7 q 7 7 9 y 7 7 , y 7 7 a T a s T a 4.5.p & - 7 9 9 9 5 5 5 3 3 - : 3 3 : n v q 9 3 4 - - ",
"( 0 3 4 4 4 4 5 9 r n r q t q q q q 9 9 9 9 q 7 i i 7 , w 7 i i n T T } >.>.{ 5 = 5 3 3 5 5 3 3 3 4 1 : : 4 > - 5 3 - ; - : : 2 ",
"U 6 - ; ; - - - % 4 2 - 4 6 0 5 , : : : : : : > = = = & : < > = : & # : , 7 9 y ,.p 5 5 5 5 5 5 5 5 0 8 5 ; 5 0 6 6 5 > - ; - ; ",
"w w w t n n w w n n w 0 n R t q 7 5 5 3 3 6 - # # # @ & > , > : 4 0 p 6 6 p p s ,.;.;.,.} ( } ( U ( / 9.( Y / ;.9.9.U j 7 7 t t ",
"5 5 q r q q 0 4 q l i l b r 9 9 7 q q 9 9 0 # & ; ; - : = , 5 3 3 = d i L i 5 6 , 5 i i i i q 5 5 & 5 r j n U l D q - ; }.; 4 0 ",
"5 5 3 3 4 4 4 # : 5 9 5 9 9 5 5 5 9 9 9 9 3 & : : : : - 3 5 5 3 - - 5 7 7 q 7 5 9 9 7 5 7 5 5 , > - : 5 3 4 > 5 3 - # |.,X}.- R ",
"; ; - ; % # # # - 5 5 5 9 5 5 5 , , , 3 : & ; ; & # # # - > > - ; > 0 0 6 5 5 5 5 7 i q 5 5 8 # # ; - 4 4 4 : > 3 # @ ; }.$ O 0 ",
"& # + # # # # 2 2 - ; > : - - > < 6 w w p p w w 7 q 7 7 q 0 4 - # ; > & + + & = 5 , 6 , : 6 0 9 6 > > : = : , = - & & = : , w 4 ",
"n n 0 ; ; - > 0 6 6 4 2 4 6 0 w n ) } i.9.( ;.i.i.;.n U U 4 - - & > 6 6 6 > > 6 p w T U t n ( ;.i.;.( U ( ;.T n < 8 } Y } } T ( "
};
