/* XPM */
static char *a8bbfc5d5f1246bec02a62804b457270jeiUlofWkkQnu6Wu[] = {
/* columns rows colors chars-per-pixel */
"64 64 240 2 ",
"   c #050302",
".  c #0C0402",
"X  c #0D0907",
"o  c #0D0A08",
"O  c #130403",
"+  c #1C0403",
"@  c #140907",
"#  c #1B0907",
"$  c #140B09",
"%  c #1C0C0B",
"&  c #190708",
"*  c #12110E",
"=  c #1C110E",
"-  c #1C1311",
";  c #1D1916",
":  c #181614",
">  c #230404",
",  c #2C0404",
"<  c #230907",
"1  c #2D0907",
"2  c #240608",
"3  c #2C0609",
"4  c #230C0B",
"5  c #2B0B0B",
"6  c #340405",
"7  c #3A0405",
"8  c #340609",
"9  c #3B060A",
"0  c #340B0C",
"q  c #3C0B0C",
"w  c #330907",
"e  c #24110E",
"r  c #2B100E",
"t  c #34100F",
"y  c #2D0E11",
"u  c #270E11",
"i  c #340E12",
"p  c #3C0E11",
"a  c #3C0713",
"s  c #241412",
"d  c #2B1413",
"f  c #241916",
"g  c #2C1916",
"h  c #241C1A",
"j  c #2C1C1A",
"k  c #2C1619",
"l  c #341413",
"z  c #3B1314",
"x  c #331916",
"c  c #3C1916",
"v  c #331519",
"b  c #3C1518",
"n  c #341C1B",
"m  c #3B1C1B",
"M  c #25211D",
"N  c #2C221E",
"B  c #34211E",
"V  c #3B211E",
"C  c #3B1D20",
"Z  c #371D20",
"A  c #1D2520",
"S  c #2D2925",
"D  c #2B2624",
"F  c #342422",
"G  c #3C2322",
"H  c #342926",
"J  c #3C2926",
"K  c #3C2C2A",
"L  c #332D2A",
"P  c #3C312D",
"I  c #3C3633",
"U  c #430405",
"Y  c #4B0205",
"T  c #45060B",
"R  c #4B040B",
"E  c #430A0C",
"W  c #4C0B0E",
"Q  c #490804",
"!  c #53040C",
"~  c #5A050D",
"^  c #530B0E",
"/  c #580A0D",
"(  c #430D12",
")  c #4C0D13",
"_  c #4B0613",
"`  c #540611",
"'  c #540B14",
"]  c #5D0C12",
"[  c #570916",
"{  c #431314",
"}  c #4B1314",
"|  c #44161A",
" . c #4B141A",
".. c #431B1C",
"X. c #4B1B1C",
"o. c #451917",
"O. c #521315",
"+. c #591215",
"@. c #53151B",
"#. c #5C141B",
"$. c #541A1C",
"%. c #5B1B1D",
"&. c #46110F",
"*. c #640B15",
"=. c #651114",
"-. c #63131A",
";. c #631A1C",
":. c #6A171C",
">. c #44221E",
",. c #4B221E",
"<. c #54211E",
"1. c #58211D",
"2. c #67211E",
"3. c #421E21",
"4. c #4B1D21",
"5. c #491720",
"6. c #531D22",
"7. c #5C1D23",
"8. c #5A1A25",
"9. c #631C22",
"0. c #691922",
"q. c #751B25",
"w. c #432323",
"e. c #4B2324",
"r. c #4B2926",
"t. c #432B2A",
"y. c #4B2B2B",
"u. c #462727",
"i. c #542224",
"p. c #5C2423",
"a. c #532926",
"s. c #542529",
"d. c #5C252A",
"f. c #532B2C",
"g. c #5B2B2C",
"h. c #5C2926",
"j. c #44312D",
"k. c #4B312E",
"l. c #54322E",
"z. c #5D322E",
"x. c #4F2F31",
"c. c #582E31",
"v. c #443533",
"b. c #4B3433",
"n. c #4B3A36",
"m. c #4D3B3A",
"M. c #453A38",
"N. c #543433",
"B. c #5C3334",
"V. c #533A36",
"C. c #5C3B35",
"Z. c #533C3B",
"A. c #5D3C3C",
"S. c #583738",
"D. c #632425",
"F. c #6C2324",
"G. c #64262B",
"H. c #6B252C",
"J. c #632C2C",
"K. c #6B2B2D",
"L. c #672926",
"P. c #76292C",
"I. c #64312E",
"U. c #69312E",
"Y. c #642D32",
"T. c #6A2D33",
"R. c #6A2B34",
"E. c #772C32",
"W. c #633434",
"Q. c #6C3334",
"!. c #643C3B",
"~. c #6C3B3B",
"^. c #6B3638",
"/. c #733435",
"(. c #733B3C",
"). c #7B3C3C",
"_. c #783537",
"`. c #70322E",
"'. c #4B413D",
"]. c #43413D",
"[. c #54413E",
"{. c #5B433E",
"}. c #63413D",
"|. c #6B413E",
" X c #77413D",
".X c #5D3E41",
"XX c #743D41",
"oX c #7E3E41",
"OX c #6B3C40",
"+X c #4A4542",
"@X c #554542",
"#X c #5C4441",
"$X c #5B4A45",
"%X c #5D4D49",
"&X c #554946",
"*X c #5B524D",
"=X c #5B5551",
"-X c #624341",
";X c #6A4443",
":X c #654946",
">X c #634C4A",
",X c #6C4C4B",
"<X c #664947",
"1X c #734344",
"2X c #7C4544",
"3X c #744B4B",
"4X c #7B4C4B",
"5X c #764847",
"6X c #6B514E",
"7X c #61514D",
"8X c #72524E",
"9X c #7D514E",
"0X c #665552",
"qX c #6B5551",
"wX c #6B5C57",
"eX c #745553",
"rX c #7C5354",
"tX c #7B5E5C",
"yX c #765A57",
"uX c #784E51",
"iX c #65635D",
"pX c #7B6764",
"aX c #77746F",
"sX c #843939",
"dX c #832A30",
"fX c #83423E",
"gX c #833E44",
"hX c #834C4D",
"jX c #864848",
"kX c #814E52",
"lX c #835C5D",
"zX c #885656",
"xX c #925553",
"cX c #865E60",
"vX c #846563",
"bX c #956868",
"nX c #937775",
"mX c #8E7370",
"MX c #926E6B",
"NX c #9B8D8C",
/* pixels */
"+ s $ . O O .   : * . O O . . . . O O + + O s & + O + 5 s % + + O O . = @ + + > > , v = , 2 + O + % + O O . . + %   . .   . O @ ",
"O = $ . @ . . . ; = s % O X X * . . @ @ % e ; $ f h * % F j < % $ % @ M = + + O . + N h g d g f = F s 4 $ @ . @ s : $ @ % @ @ % ",
". O O O X X % < < 5 r s M e 4 d . . - f 4 % % @ s ; M u v 5 < + * f , > , , , + & + + # > > 4 x 1 5 5 < < 5 $ + + @ . + + O O + ",
". O . .   * 4 , , , 2 4 L b > v s O = j + + O + O O K 0 6 > > + O 5 6 6 7 6 6 , + + + > , , , q q q 7 , , 0 < > > + @ > > + + + ",
"O + O . * ; < z l 5 t r M t.b y.m > g N + 4 < + < e K < 5 4 < < % 4 7 7 8 , , 0 s O 4 5 < > t g z ..x 4 % t 4 @ 4 d f % # + & % ",
"% 4 = : : h % % 4 n l 5 e N H n h F '.].n w.K L j n P I m.n.].&Xu.l q q 1 < 5 l N j G v f V w.x l v F N x d S N f M h $ & . - 4 ",
"< > < j + 3 2 > 2 u 3 8 q q 8 6 V l b :X5 , 3 j l , , 1 q 0 J .X .7 T U U l  .(  .{ q E t.$.U 7 T 6 X.G W 7 j 5 > O O O . . % < ",
"< + 4 4 > > , 8 8 5 5 q q 9 6 7 X.0 6 4., 0 0 j l , 8 7 9 6 w.y.s.6 R R U x e._  .( E T t.e.) | b { | h , 8 D O > + + O .   @ < ",
"% 4 g f d d f s 5 F d z x x >...w.G b N.G b x.K G f.w.y.A.u.m.v.S.w.{ i.$.x ..g.b.w.a.e.F w.f.[.t.t.H D M j.'.e 1 1 r @ X = = - ",
"4 < s 5 4 s H 5 d j g n J B { { $.} , m b.z ..|  .| '.*X#X3.>XwX@X=X2 { q 7 ) c iX#Xi.{ q 0 1 &Xy.s.S.M.m b z 0 w w l j N j s $ ",
"4 + 2 3 > 5 u., q 3.C 3.t.x 7 U ] R 6 0 ..E 9 q ( ( N.,XX.} T.i.eX:X7 ' Y E ' 9 Z.i.T , 6 6 6 V.d.G.~.b.c $.X.{ &.z x V J d d - ",
"% % < 4 < d F i z w.w.w.J j q ) q q z d G p f.b z X.#X-Xf.e.e.e.>X$X .} } z ) q f ..$.6.X.m | b.A.3XA.>Xx q 0 5 0 p B j d < = * ",
"; D s j F j j x m n j l V M.u.t.].N >X[.N.V.7X*XM.Z.wX%XS.-X+XN.>.w.y.u.f.[.A.!.0XM.$X8XeX0X7X0X'.qX<X}.>.0 u.H < 5 n L 5 5 e < ",
"d M 5 d O + > , 6 5 & < > 0 7 7 B s.K.J.p.#.D.0Xf.Q.K.K.;.D.tXp.Y ! ! #.[ !.(.).lX>X@XB.,XyXvX0XH z.Q.%.$.h.h.w.b 6 e.M., q w , ",
"s h l d . . + > , < @ 2 0 z ( w M 4.Q.g.$.W Q.@XB.).F.L.`.J.yXX.U ^ *.-.K.f.d.;./.n.v.h.!.yXtX,Xd <.(.D.D.p.X.d b 6 | P + 8 1 , ",
": h h K H H v v c j - w.b.u.e.v P 5 y.r.b { l.iX'.!.C.l.^.B.yX|.~.w.W.;X!.#XB.(.}.x a.I.!.{.!.1Xf.p.~.g.z g.f.y.u.e.B S v l d + ",
"% 4 4 d d n u.m ..w.w.f.j.7 ^ G.$.Y i.@X..B.yXA.B.a.y.| @.6.d.d.3XpX1.D.9.7.#.J.yX,.O.Y z.B.7.F.%.G.J.K H 3X3X;X;XB.K F b c j.O ",
"O + > > , b e.| 4.a.s.B.S.) ! #.O.Y @.n.D.! a.Y.oXK.h.U ! R ` U s.6XY =.:.-./ $.~.+.=.U 8Xb.p.F.E.K.9.l S.).3XyXJ.i.G 4 > b.v.4 ",
"% s % l V t.V y.k.t.t.b.m...{ X.4.%.g.S r.X.L l.!. XN.8 O.z { E ,.{.W.hX}.c <.cX%X0 X.X.aXn.W.~.B.W.W.F j.3X>X7Xl.C.K : = N H = ",
"< % @ # m w.v | m n u.y.u.a.i.B.b.p.Y.C.I.4XyXw.E  XC.|.2X!.-XzXvX)./.4XvXC.).1X5X3X4XmXpXi.d.%XF 4.d.,XN.| F g | e.V l n j $ @ ",
"+ + O + p s.6.d.X.z  .$.@.8.#.D.l.+.0.E.F.=.p.g.P.K.J.Q.H.I.!.zXxXE.dXE.1X|.).;._.xX).kX,XY ' <X..@.) )  .@.!.} } 9 7 6 z v < + ",
"+ + O 4 b e.f.Y.f.v } d.#.#.W z.N.%.D.F.`.P.W.N.I.Q.I.W.T.!.6XhX)./._.K.9X;X_.).L./.2XtXb.%.Y.[.J B.( p | e.,Xe.{ { q 0 l x # + ",
"% % e g x g B y.b.t.y.!.>.g.i.<Xb.!.eXb.<X5XeX$X!.8XV.e.X.r.e.p.W.l.;X|.;X8X^.z.C.~.|.nXpXlXtXK m.tX;Xm.n.,XwX{.m l.J s F F d 4 ",
"1 , 8 w 0 | X.0 q ( b b r s.p.6.T.Y.i.}.lXH.0.(.1X^.$Xg.:.+.0._.~.y. X_./. XzXkXk./.hXbXxXbXzXj.pXjXsX;X..D.yXX.} 8.d l e.r.w.c ",
"v , 6 3 8 z m u.b p 7 , v  .@.$.%.D.7.B.zX_.E.(.^.1Xv.!.(.D.L.$.p.y.2X2X2XjXzXrXG ~.xXbXbXbXlXqXvXjXjXbXm %.I.X.h.|.< 0 4.e.| | ",
"% u d l d F P &XZ.u.u.y.P e.B.u.g.!.3X>XnXNXtXnXmXmX0X6XkX5X9X4XrXb.rXeXeXlXrX3X$X;X<X-XrXeXtXwXeXhX;X;XC.p.Q.;XqX*XK w.w.w.w.G ",
"< h h 0 1 0 m ..M.I V.t.m u.M.M -X,X1XzXhXnXA.~.1X1XrX4X4XeX2XmXlXvXeXpX@X}.~. X9X;X<Xv.3X^.B.;XjXB.j.~.hX/.XX(.7XA s g j = s f ",
"1 j 5 6 , , z q y.m.y.p , p w.m W.~.K.P.E.2X!.).).).2XgX(.~.dXrX5X/.(.lXy.J.:.;./.^.N.m.!.D.D.L.E.B.&XzXXX/._._.e.S v < > + > + ",
"5 d < 8 , , 0 ( t.b.i.z , 0 z z i.J.$.%.D.~.A./.K.I.K.9.%.~._.5XhXgXgXrXV O.) W p.!.#Xb.W.W.G.Q.Q.N.+XbXkXXX5X2Xg.h x $ O + + + ",
"< 4 5 m F G w.m B n B s m m n J m F % >.>.r.l.g.S.k.X.{ e.g.X.{.y.J.!.C.{.m.P B r.N.#X{.#X%X[.6X0X*X[.pXpX-XeX6X$Xn.I D = j h h ",
", , 7 0 m i.8.6.i.@.y.d { d.Y.B. .x 4 -.0.Y /.zXi.G.-.*.=.-.~ D.%.*.^ 2.gXnX=Xz._.' ' W 9 w.;X(.T.G.~.cXlXXXQ.T.^.T.N.b l m x l ",
", , 7 6 b d.O.) 7.@.e.4 } ^.XXB.$.l 1 ] ~ ] F.bX4XX.*.] ] -.*.2.%.F.F.2.sXlX$XW.;.~ R ~ ! b ~.F.F.0.XXbX4X^.J.Y./.G.w.f.| z x x ",
"4 4 + + d m z l b { y.- ..t.G B y.J s >.a.| { ;X{.V o.e.g.} } e.x z.r.,.e.y.I F 0 p z ( z J A.Q.r.e.W.eX$Xb.#Xk.J d N j d s s s ",
"B F n m w.w.b t.g q { o.l l F ( X.d.f.S.:XG U R q W E i.}.U ( X.) ) f.w.{ i.y.B.a.r.m q e.J. .W.~.}.4.d.3XwXyX,XwXB y.m m x g j ",
"0 w.s.g.d.d.(.^.,.:.@.O.R E  .R W ! ! O.W. .! ] R / ! O.W.~ ` ! ~ ] #. .~ ^ +.F.:.%.y ' %.) Y Y -.X.+.-./.zX4XhX;Xg.7.( ( 0 w r ",
"2 g ..4.6.s.~.f.b @.$.q E E | E } ' 6 W D.| 7 T q R R { $.` R W _ ~ ) ) Y W } 9.-.} d ) O.O.^ ^ O.z W Q %.(.4X!.N.f.6.{ { 0 5 s ",
"5 r l b w.X.a.l.r.o.m n m v t.k.j.d w.>.$.g.f.y.j.f. ...f.4.t.P J m m.b.f.v.B { &.>.c } l.>.| | X.y.y.l.<.$.e.f.u.b.n 0 z 0 5 4 ",
"8 0 6 0 V.i.6.Q.W.z.#X,X1XD.G.Y.^.l.p.$.0.#.@.f.$X1XY.7./.*.K.tXG.#.4.7.XX0X4X:.#.F.0.Y rX,XW.W.^.W.8XqX( ) (  . .B.D l 8 l x l ",
", 8 6 7 w.Y.$.#.-.p.B.vX~.0.q.H.H.p.] =.-.0.] 9.A.Y.D.0.E.P._.4X9.! ! ~ ! W.E.sXD.O.D.;.s.;X/.F.7.7.5XA.7 U ` R '  .d p 7 z b 5 ",
"d d 0 r j N.u.f.a.e.b.m.w.1 0 x v h } W.e.f.7.B.M.S.B.s.W.;X<X%XN.i.| { X.@XB.|.h.$.J.i.#X#Xf.s...b #X&X4 5 p  .8 p n < + 4 e 4 ",
"L M.M.M.m.+X&X'.n.#X>Xb.m.h + 0 5 0 0 q @Xy.s.6.f.W.N.h 4XzX4X1XXXqX%XrXuXyXqX;X,Xu.b ..OX!.eXaX,X,X~.f.b >Xm.l m w.c 2 s H Z - ",
"H b.u.f..XZ.v.#XA.C.!.W.d.m , U 9 7 U U X.] *.*.:.=./ $.P.jXjXsXjXyX6X4X(.~.lXzX!.6 _ _ T ) Q.S._.0.' / 7 p.B.q } $.E ( e.n b 3 ",
"N F C y.x.m.v.m.y.N.4.X.$.d , 7 7 7 6 E e.( ] ~ U / W } F.E.q.P.fXwXwX4X(.^.cXvXS., a T )  .8.N.1XQ.T.H.( X.J { ( ( 6 8 C H F l ",
"% 4 d F F v.m.K H G x x u.t.l b V d v b v.t.a.t.v.c 5 d i.i.e.N.4.F P V ,.y.v.A.8XG w.e.C.x 3.b.r.x.b.u.t.@XI G u.F x j v.P K M ",
"n x m J F y.a.5.d.} >.d.9.H.E._.W.e.` R , ) ! } 1X} W ) E ) ( u.X.U 7 W ] } W.sX0.P.E.E.2X@.` O.#.#.d.c f.W.X.q 6 0 d .Xt.v l g ",
"m b ..u.t.g.s.@.d. .w.;XK.H.).Q.I.| W R 7 T ' ^ { %.;.%.] +.} { ;.' O.+.-.%.~.sXP.sXfX)._.9.#.-.0.0.K.z.z.%.} W 7 { s Z.N...z v ",
"s d g j j V u.b ..b s N.W.g.C.d.W.B , q E 5 7 7 4 q z } { { X.m e.e.e.| { ..n L.J.a.a.h.i.b q ( X.{ $.r.>.E q W q i j n.n.v.Z k ",
"h ; f D h j J h d v d d v x f < 0 z p { ..t.v.-XA.y...p J r | w.y.4.A.'.n x x x b G t.u.v G y.u.d L f.o.| X.{ z s < m j s s $ X ",
"b x G y.y.y.y.x (  .{ z { 6.m ( ' ` ! ! @.X.;XkXXX(.H.H.OXi.*.[ 9.[ -.W.T ' ;.} $.(.B.D.p.<.D.J.} @XzXD.%.@.@.) % x ..w.z v l % ",
"5 d n m b b w.n 8 9 z { |  .n 6.G.#.[ ` ' ..y.^.G.d.7.9.W.X.0.9.7.#.9.b p E W %.@.W.[.W.J.h.a.1.O.v.4X).6.$.i.6.s l | e.n 4 l j ",
"@ $ = = % - j s 4 r v n g x h n | G y , l h - j r 4 d b K d C F n J n f g j F d v n M n G h F y.l h <Xj.V d s 5 $ @ 4 s s % % h ",
"< 4 4 4 h s 0 7 p b v n % e s n x K s | c b | z F - m b b X.4.M h 6.| 6.s.5.C.k 9 E O.E } l l.Q.h.h.g.u.C = 4 % % o # & & < O X ",
"< < < 4 d s 3 8 7 q 7 i y + 2 3 > D 0 +.O.$.#.` { b  .) _ #.9.u.y._.8.@.G.8.6.i R ~ ~ ] =.<.I.).U.p.g.J.3.# l 5 4 + 2 2 2 2 + @ ",
"@ @ % < - 4 1 1 2 1 0 x 4 > < 5 + j 5 q { $.-.T p v ( {  .@.D.3.t.(.) (  . .f.4 6 ` T ! ` p 4.K.g.a.i.6.u.% < 4 4 % < 2 < + + O ",
"  $ % e f e 4 $ O % 4 e = - % s % f - h g < 5 4 x f d s h n x f H j.H x m m n d z b g e.w.j n w.t.S.N.m x d = = s - $ O O O . . ",
"X O < < 4 1 4 $ + + + + x H % 5 < # z x u.+ < q 0 0 z n e.) q X.4.B.J i  .6.( ) } m F x v w...5.5.| ..d 5 p z 0 5 1 s O O . O . ",
". O < < < 2 y $ + + + + 5 F 4 > + 2 0 0 ..< 6 7 p | i G 4.) W $.7.J.m , E ( ) _ 9 { C 3 i | (  . .8 , 5 l 8 8 8 8 , < . . O . . ",
"  . O . . O $ . . . . O O - O + + < i l d + 5 < y v k = d z 5 n v | 4 2 w q 0 y p b h m b n v v k < 5 4 4 5 + < < + @ O O O . . ",
". .   . . . .   . X   . . . O . . % s h D h o < 2 < b m x u j N O l d 4 V 4 h @ d j g d N H M S L M F M * % s o . .       . $ X ",
". .   O O O O O O X . + + & O   % y y i 5 < 5 q 6 6 E } ) ( i.S.4 q T E E 6 c < , , , 6 z F h h n v x B = + 2 + + + O X +X$ . . ",
". . . O O O O O O . . O O O O   % d l 5 > + < q E 7 6 q w 3 ..n.$ , U 6 8 0 o.5 , , 8 7 0 C H n v i 5 x % < > + + + O +XNX+X  X ",
". . .   . . X . .     . X o .   $ % % % % % $ 4 < + + + O < 0 m $ 1 w 5 0 q l % 2 < + < d h h s s d 4 - $ + % @ . .   X +Xo X X ",
"    .     . . X .   . . . * @ + + + O + = & + + + + O + O < 7 7 U E 7 r z 7 , , , , . = l l r 4 s - s % + + + + O O . @ . O @ O ",
".   . .   O . O . . O . O - % > > > > < % + + + > + O 4 + 2 7 9 U U 9 5 , 9 7 7 8 9 % d w 0 5 t x - g 5 2 > > > + < & O O + + + "
};
