/* XPM */
static char *_89da15c113049ca9566b58f7b252566dkaIJz2jAEbg2K5C[] = {
/* columns rows colors chars-per-pixel */
"64 64 256 2 ",
"   c #755C27",
".  c #7E672B",
"X  c #7E6A35",
"o  c #8A6D1C",
"O  c #94721D",
"+  c #A27B1A",
"@  c #876B2A",
"#  c #916E27",
"$  c #8C732C",
"%  c #9B7B24",
"&  c #9B7B2C",
"*  c #967728",
"=  c #856D36",
"-  c #8D7332",
";  c #8C763B",
":  c #947B34",
">  c #9A7D33",
",  c #947B3C",
"<  c #9A7F3B",
"1  c #937639",
"2  c #A27C29",
"3  c #A37D36",
"4  c #8B7745",
"5  c #947C43",
"6  c #987D47",
"7  c #A77D42",
"8  c #B9871B",
"9  c #A3831E",
"0  c #9D8227",
"q  c #9C8235",
"w  c #95813A",
"e  c #9D843C",
"r  c #9D893B",
"t  c #8B803E",
"y  c #A48325",
"u  c #AB8624",
"i  c #A5832B",
"p  c #AD8B2C",
"a  c #AC8728",
"s  c #B38B25",
"d  c #BD8B24",
"f  c #B48C2C",
"g  c #BC8D2A",
"h  c #B58427",
"j  c #AD922B",
"k  c #B3942D",
"l  c #BC932C",
"z  c #BC9C2C",
"x  c #B99526",
"c  c #A38433",
"v  c #AB8B34",
"b  c #A3843B",
"n  c #A48A3D",
"m  c #AB8B3C",
"M  c #A78836",
"N  c #B38B34",
"B  c #B28C3B",
"V  c #B98B36",
"C  c #AC933C",
"Z  c #AB9539",
"A  c #B49334",
"S  c #BC9433",
"D  c #BC9C33",
"F  c #B4933C",
"G  c #BB943B",
"H  c #B39A3B",
"J  c #BC9B3C",
"K  c #B39B36",
"L  c #C8941C",
"P  c #E6991D",
"I  c #DAA31F",
"U  c #C28D2B",
"Y  c #C58C29",
"T  c #C3932C",
"R  c #C49B2C",
"E  c #CB9B2C",
"W  c #C69726",
"Q  c #D69A29",
"!  c #C28C34",
"~  c #C39533",
"^  c #C49B33",
"/  c #CB9C32",
"(  c #C3943B",
")  c #C59C3A",
"_  c #CD9C3B",
"`  c #CC9437",
"'  c #D39C35",
"]  c #D39C3B",
"[  c #D89936",
"{  c #D28E38",
"}  c #E59D28",
"|  c #E39E32",
" . c #CBA22B",
".. c #C8A329",
"X. c #D3A32B",
"o. c #D9A829",
"O. c #C4A233",
"+. c #CDA235",
"@. c #C8A33B",
"#. c #D3A235",
"$. c #DAA335",
"%. c #DBAB34",
"&. c #D4A33C",
"*. c #DAA43C",
"=. c #D5AA3C",
"-. c #DDAB3B",
";. c #D3AA33",
":. c #DBB336",
">. c #D5B12B",
",. c #E7A72B",
"<. c #E3A434",
"1. c #E3AC35",
"2. c #E2A53C",
"3. c #E2AB3C",
"4. c #EBAC3C",
"5. c #EBA836",
"6. c #E4B33D",
"7. c #EBB43B",
"8. c #E6B637",
"9. c #F3B739",
"0. c #F6AC33",
"q. c #F8C73C",
"w. c #EFC13D",
"e. c #9C8543",
"r. c #9D8A43",
"t. c #9C844A",
"y. c #998648",
"u. c #9D8E4E",
"i. c #A38543",
"p. c #A48B44",
"a. c #AB8C44",
"s. c #A48B4B",
"d. c #AB8947",
"f. c #B48D44",
"g. c #B38D49",
"h. c #AC9343",
"j. c #AD9945",
"k. c #A5924D",
"l. c #AB934B",
"z. c #AD9B4C",
"x. c #A69244",
"c. c #B39343",
"v. c #B49A43",
"b. c #BA9C43",
"n. c #B2944C",
"m. c #BA944C",
"M. c #B39C4B",
"N. c #BB9B4D",
"B. c #BC9543",
"V. c #A68D54",
"C. c #AC9454",
"Z. c #AA9756",
"A. c #B49554",
"S. c #B49C53",
"D. c #BB9A53",
"F. c #B59B5B",
"G. c #BB9C5B",
"H. c #B69656",
"J. c #B08E56",
"K. c #BCA244",
"L. c #B9A449",
"P. c #BDA255",
"I. c #BCA35C",
"U. c #B5A258",
"Y. c #AFA155",
"T. c #AB9761",
"R. c #B89D63",
"E. c #B9A664",
"W. c #AFA76D",
"Q. c #C39C44",
"!. c #CC9C43",
"~. c #C39B4B",
"^. c #CA9D4B",
"/. c #C39345",
"(. c #D29D44",
"). c #D79D46",
"_. c #C39E54",
"`. c #C59C58",
"'. c #D29E53",
"]. c #CDA342",
"[. c #C4A24C",
"{. c #CCA34C",
"}. c #C9AA49",
"|. c #D4A344",
" X c #DBA543",
".X c #D4AB43",
"XX c #DCAB44",
"oX c #D4A44B",
"OX c #DAA54B",
"+X c #D5AA4C",
"@X c #DCAB4C",
"#X c #DEB345",
"$X c #DDB24C",
"%X c #DAB94C",
"&X c #C4A455",
"*X c #CCA454",
"=X c #CBAA53",
"-X c #C2A45B",
";X c #CCA65B",
":X c #C4AA5B",
">X c #CCAC5D",
",X c #C5AC55",
"<X c #D2A554",
"1X c #D3AB53",
"2X c #DCAC53",
"3X c #D3AC5B",
"4X c #DCAC5B",
"5X c #D6A358",
"6X c #CDB357",
"7X c #DCB254",
"8X c #DBB35B",
"9X c #D9B759",
"0X c #CAB04D",
"qX c #E3AC43",
"wX c #E3AC4B",
"eX c #E6AA45",
"rX c #E4B344",
"tX c #EBB444",
"yX c #E2B845",
"uX c #EDBB44",
"iX c #E4B34C",
"pX c #EAB54B",
"aX c #E6BA4C",
"sX c #EBBA4C",
"dX c #F2BB43",
"fX c #F3BC4B",
"gX c #F3B748",
"hX c #E2AD53",
"jX c #E3AD56",
"kX c #E4B453",
"lX c #EAB553",
"zX c #E4BA53",
"xX c #ECBA53",
"cX c #E3B45B",
"vX c #E5BA5A",
"bX c #EBBB5A",
"nX c #E9B758",
"mX c #F1BB54",
"MX c #F0AD42",
"NX c #CCAB62",
"BX c #C6A764",
"VX c #D3AC64",
"CX c #CCB267",
"ZX c #D4B364",
"AX c #DBB764",
"SX c #D4B574",
"DX c #E5B964",
"FX c #E2BD74",
"GX c #EDC24C",
"HX c #F5C549",
"JX c #ECC255",
"KX c #F3C756",
"LX c #F7D04A",
"PX c #E7C466",
"IX c #E9C674",
"UX c #E9D596",
/* pixels */
"q q M c e.b $ , e.q < e.k.t.s.s.s.a.1 4 6 , < e.e.t.6 1 : n 5 4 5 , 1 < 5 ; 4 ; 5 i.: X b a.d.5 5 4 4 4 4 4 e.X , s.t.5 < ; 4 4 ",
"&.XXrXXX>XIXm H 7X.X@X7XAXZX1XOXwXHXb.g.*X{.oXoX(.oXOXOXOXjX3 V.vXiXpXzX7X$XkXpX@XhXG - @XoX~.3X*X_.^.*X*X*X1X. ) .X&..X.X^.D.N.",
"-.6.6.3..XPXn N XX6.tXrX#X8X X[  XHXG V wX XqXwXwXoXwXwX@XpX3 T.DXpXpXsXsXpXsXuXsXDXf.@ mXpXXXtXpXtXtXtX6.tX@X  ].fXtXrXrXqXqXrX",
"E E E  .^ Q.q i ^ ^ ^ R S G T 8 g &.c 2 V U U U T T T E T ~ - 6 ^.+.&.#.+.&./ #.;.|.M   ~ l g ^ ^ ^ +.+.E E ~   u E E W E Q E E ",
"% o % y * @ ; : $ @ @ $ @ . - = @ @ - = @ : : - . = : - - ; 4 = = - > & @ . > r C M p.r.M c i M & $ q v M & & t.- & c m C h.r b ",
"f.x.=X|.=.=.=.=..X.XXXOXm.t.5X5X<X@XiXkXiXkXkXiX3Xs.2XkX*XBXBX;X@XiXzXxXcXe.~.FXJXGXGXKXKXJXKXxXKX}.B.OX X X(.OX X*.4.gXgX@Xr./.",
"N m !.$.-.-.%.*.XXqX3.3.B i. X*.qXpXwXwXpXpXwXpX1X< wXsXwX@XwXiXkXnXlXxXxX6 {.jXcXxXxXsXJXGXxXxXKXK.N 4.uXHXdXuXdXHX9.4.4.( y.S ",
"a c J ^ E E E / E E E ` n > ' Q $.*.#.' #.#.*.*.( 1 +X*.|.&.&.&.*.*.*.*.*.< G T ~ &.-.-.:.;.;.#.%.A h Q %.:.:.8.8.8.8.X.Q ( ; u ",
", $ q : - : : $ , < > c l.< q C x.n e e n p.n q k.V.e.e 5 e.y.5 p.p.p.h.a.t.e.x.h.L.L.Y.L.M.z.z.p.k.y.w n v.C q c H L.j.r r.y.1 ",
"C.C.H.G.&XNXT.G eX X XoX{.*X7XkXkXJXM.V.=X_.&X&XBX`.*X3XBX2XA.s.@XoXoX|.!.^.!.|.@XrX7XD.zXvXnX7X7X4X4XAXcXcXvXh.%XJXbXxXwXqXnXkX",
"_ ` ` ] &. Xa.U ,.Q Q [ Y ).[ | 5.9.G B |.] *.@X X XiXiXOXkXf.5 XX&.] _ |.!._ |.|.rX7Xc.pXtXpXiXkXzXzXzX7XcXGXv yXfXMX4.4.fXsXaX",
"' #.#.' #.-.m h } o.Q o.o.E [ ,.,.,.B a.|. XOXoXOX@X|.OXoXXXn 1 *.' ' &.' *.$.$.-.4.|.m pX7.uXuXtXtXtXpXeXrXw.% ;.9.7.<.,.uX7.6.",
"o o % % O 2 < : & % % * q $ : > : : 6 5 & > & & > : > q b q t.4 : c M % O & y i i y > w K D D D z k k j k k A V.v A J K K K C Z ",
"v > OXoX1X2X8XSXSX;X3XkX&Xi.=X[.{.[.*X<X<X<X<X8X;X6 NX`.`.;X`.`.`.*X*XoX<X1 6XAX3X8XZXVX8X7X9X9XPXp.v.JX7X7X7XvX9X7X9X9XzX6Xp.aX",
"J M ,.2.tXsXaXzXvXcX@X0.*.b *.2.2.2.-.qXqXqXwXpX1Xd.oX*.oX(.(.'.OX|.*.*.@XM 9XpXtXtXpXiXiXpXzXaXKXc.) LXiXsXsXiXzXuXtXtXGX#Xi 9.",
"A M ,.2.tXrXrXqXzX4X*.9.&.c 3.2.qXqX*.qXqXqXXXqX&X< /.!.(.!.] (.!.(. X*.!.> 9XpXpXtXpX6.7.tXtXrXHXc.( HXiXsXsXsXpXuXdXdXdX#X2 9.",
"& * + 2 % 2 2 * % @ o O $ @ # # # # # # & & i B y.; : $ > % * & & & i + i : k z l ) ^ O.O.O.O.z z b p  .O...R z O.O.x s x k @ 8 ",
"Q.~.N.I.G.1XM.y.[.L.n.a.g.H.H.D.D.P.T.V.&X`.*X:X-XG.-XI.-X&XG.l.9XCXSXZX3XNX[.{.{.{.ZXP.=X+X7X7X1X*X=X1X1X+X%XC [.7X+X}.=X-XD.{.",
"-.-.%.XX4X7.H G.JX6.rXqXXXXX@XwXiXiX~.N.pX3.rXwX@XhXOX1X2X2XNXF 7.7XDXzXkXzXsXaXaX#X$XN.1XtXtXpXpXsXsXlXnXeXHXG -.9.tXdXsXrXsXxX",
"3.qXqXqX2XrXM m.JX#XwXwXqXqXiXiXkXsXn g.xXiXlXbXnXkXkXkXnXlX>Xx.HXiXvXzXDXDXmXxXJXJXaXm cXpXiXpXxXnXcXcXnXtXq.F -.9.tXmXsXfXsXxX",
"u s a y 0 p b & u k f f f s h f f S > b k k l ~ ) ^ ^ ) ) / [.i.z g S @.) +./ O.O.z O.h.G ^ ^ ^ ^ S ^ O.@. .>.N W X.X.#. .X.>.X.",
"h.w j.h.h.h.F.V.n m.c.l.k.k.P.P.P.D.;X:XD.N.P.-XS.< ~.-XN.B.R.R.m.`.A.H.H.s.F.-XD.n.I.E.P.P.:X:X,XP.L.,X:X,XP.BX&X}.0X0X}.}.N.0X",
"~ b $.] ] ] V (  X X&.oXI.~.xXxXxXpXrXkXkXnXnXbXNXd./.7 g.~.^.~.@X XOX@X@Xa.CXcX2X4X1X<X7X@X@XcXDXH.G dXsXsXxX#XiXiXsXyXrXyXS.#X",
"G n 1.*.*.*.' $.$.*.<.qXN.S fXpXxXxXpXxXxXbXhXpX7Xg.' g /.(.eXeXOXOXwXwX@Xl.SXjXhXkXwXwXiXwXkX4X;XA.m.fXaXuXsXuXsXxXxXsXpX#XS.6.",
"& : l s s f f f f k l h M A _ _ |.&.=.=.=.-.%.%..XB 8 g h h U E g ! U g V m ].&.#.#.#.] &.+.].].B s.J 7.3.1.8.6.-.3.rX-.=.#Xc.1.",
"F i ,.2.rXpXpXiXDXAXOX7._ M -.qXqX2.3.rXqXqXqXwX{.b ^.oX<X(. X XoX|.*.*.|.c AXkXqXqXtX6.6.rXrXrXLXh.( KXiXiXzXiXpXtXuXuXuX#X2 9.",
"i & L W E E R W ^ B d Q p # W d U d d U T U T ~ a.- 3 3 B N a N a h V g V * =.=.&.*.%.%.%.%.-.X.:.F g ,.%.%.%.%.1.%.%.X.o.+.O o.",
"b e.3 r e.a.w , < = - . = 1 , 5 4 ; 4 4 s.s.p.l.V.u.p.t.p.b e i.v.c.n.C c.A.F A H K.K.K @.@.K.K.B.a.j.K.L.K.K.n Z K.H v Z p.1 M ",
".X.X+X1XVXxXv.C.vX$X$X+XoX1X1X7X7X9X:XG.vX7XkX2X>X3X3XNX3X8XNXn.KX8XIXPXcX8X7X$X7X7XAXI.8XaXzXbXvXnXbXxXnXwXHXB oXfXsXxXkX7XcXnX",
"3.2.2.XX5X3.F G.zX6.qX2.XXXX@X@XiXkX~.~.tX6.pXkX2XhXwX2XcXkXNXF dX2XDXzXkXzXsXaXsXiX@XD.7XrXpXpXpXsXiXnXcXwX9.G  X9.rXsXpXpXtXaX",
"1.3.3.XX'.-.q B nX#XrXeXXXqXpXpXiXpXa.m.sXiXlXbXlXpXkXcXnXmX3XC HXiXvXaXDXJXfXGXfXHXsXB cXtXrXxXxXiXkXDXnXdXq.F $.9.tXsXsXfXuXsX",
"u s u 9 0 y r & y p a u u u u a p p q c j A S S S ~ S S ~ l b.p.f s N J ) ^ l x k j k h.F ^ D S S A ^ D O... .v l .. . .....X. .",
"v.r L.v.v.n.A.C.h.N.b.S.S.S.-XP.-X&X;X;X-X-X-XBXS.c _.P.D.N.G.R.D.-XG.G.BXk.E.I.I.F.I.BX-X>X>X>X>XI.I.6X,X6X:XCX:X=X%X6X=X0XU.6X",
"~ b $.' ' ] ! ( |.*.$.oX-X{.xXpXsXsX6.pXzXnXnXbX3Xd.( i.f./.^.~.oX|.OXOX@Xc.>XkX@X2X1XoX$X@X@X4XDXH.( dXpXsXxX@XqX#XyXyX-.yXN.yX",
"D b 1.*.*.*.[ *.2.qX3.iX-X) fXpXsXxXpXnXnXbXcXpX7Xf.[ ! ~.!.wXOXOXOXwXhX@Xg.SXcX2XjX@X2XkXwXjX4X;XA.~.xXiXsXaXaXaXxXsXsXpXiXD.6.",
"& > l h h h g T g l T V b A &.&.=.-.-.-.-.%.1.1..XA 8 d h Y Y W Y U Y ! ~ m ].#.' ' #.] &._ ].^.M < S 8.1.8.8.7.8.1.eXXX=.#Xc.%.",
"r.p.b p.s.n.r , k.p.b < t.i.n a.h.c.p.m b.J J K.U.E.M.j.L.L.j.C L.M.M.v.n.I.L.b.L.K.L.h.K.J b.b.v.x.v.@.J @.@.A A @.@.K.J b.l.A ",
"=..X.X1XVXxXb.A.vX$X$X2X1X1X3X8X7X8XI.H.7X$X2X1X;X*X<X;X3X3XBXn.JX8XIXPXcX7X7X7XkX7XAXF.7XaXzXxXnXxXvXxXlXkXHXm |.fXlXkXkX2X7X7X",
"2.qXqX@X5X3.F G.zX6.rXqXXX@XhXiXnXkXN.~.tXrXpXkXhXwX@X4XjXhXNXJ dX2XDXzX7XvXaXaXxXkX1Xn.3XiXpXiXpXxXzXkXcXwXdXB. X7.qXpXlXiXpXiX",
"3.3.3.XX<X-.> B nX#XqXeXrXqXiXpXiXpXa.g.sXzXiXxXlXpXpXkXkXmX3Xc.HXwXnXaXDXbXGXfXfXGXzXm 2XpXwXpXpXiXkXcXiXuXq.N [ dXtXpXpXgXuXpX",
"9 u u y 0 y e.> i p p a y a f p a f q c j A V l D S T R l l N.s.h a A ) ^ S l z k k S h.A l S S l k J D O... .v x ..R ..W W E R ",
"M.r.K.N.v.n.F.C.h.b.b.S.Z.z.:X-X&X&XNXNXI.P.-X:XS.q ~.;XD.S.E.F.D.-XG.-XBXV.F.E.BXI.I.BX:X,X:XNX>XI.U.6X:X:X:XCX:X}.6X6X0X}.U.6X",
"S b X.' ' ] ! (  X$.$.oXI.[.xXpXsXsXrXpXnXnXnXbXZXf.( 7 d./.!.~.@X X X@X@Xc.3X7X2X2X<X|.2X@XOX4XDXH.Q.gXpXsXsXiXwXiXyXrXrXiXF.6.",
"G n %.$.*.*.] *.*.2.1.wX-X!.dXtXsXsXpXlXnXbXjXpXAXg.Q V ^.(.wXqX XOXwXwX@Xn.SXcX@X2X@X@X2XhXjX4X3XJ.N.xXiXsXaXaXsXsXsXsXrXyXF.6.",
"% & R g g g T T W W W ~ a.G 3.-.6.6.rXrX6.rX6.8.+XF 8 d d d Y ' { Y ` ` ` F ].$.*.*.*. X X+.|.{.B i.B.uX6.8.7.tXuX7.pXiX#XrXn.8.",
"4 t : w < r r., r.p.r w w w M c v M v p j k k H S.S.j.j.M.L.H C Z C C v x.z.C K K H H Z Z Z H v.j.k.C k k l z z x z z z z K.M.k ",
"*X*XoX1X1X7X:XH.VX*X*X&X_.~.*X*X*X*X-Xl.;X{.{.*XNXNXVXZX3X3XSXA.;X>XVXNXNXBXBXNX;XVXSXl.F.CX;X;XNXBXBXBX-X:XCXI.A.3X3X1X1XNXCX>X",
"/ E X.o.I ,.) b |.' !._ ` ] *.-.-.3.@.n &.E ' ' ' ' ] ] ' $.*Xn *.*.|. X X X@X X X X Xa._.oX&.|.^.~.!.oXOXXX@XH./.pXiXiXqX-.XXqX",
"o.o.,.,.,.8.Q.e XX2.|.|.|.|.*.<.2.3.|.d.hX XqXqX X X@X@XOXqX>Xs.2XhX2XwXhXhXhXhXwXwXpXn.`.XX#X#X$XXXrXyXyXyXnXN.~.gXtXrXtXtXpXpX",
"d d d l x l N 3 T W W W W W W W Q Q +.N W E W E R W E / W E J b ~ / E E E +./ E E W #.c.B.] / &.&.+.=..X=.=.XXQ.S *.$.-.%.%.=.-.",
"; 4 e.b r r.V.Z.r i.x.x.x.r.j.j.C C S.W.S.z.Y.Y.z.Z.U.I.E.I.E.W.U.Z.S.Z.U.k.k.F.C.S.F.R.l.l.x.l.l.l.r h.v.C C U.j.C b.L.L.v.C v.",
"B.A.cX=.%.-.$.*.=.%.;.=.+Xa.@XhX7X2X1X2XoXoX{.3XAXn.8XAX>X{.{.=X`.`.<X<X3XC.g.'.^.^.*X*X3X3X3XVX3XNXs.8X=X=X7X7X8X8X9X7X3XZXC.^.",
"m t.2X=.o.I Q X.$.$.;.*.].l.XXXXXXwXwX X X XOX^.8Xc.oX<X|.|.|.|.oX^.OX|.].F.a.` (.!.' ' &.&.*.XXqX{.a.!.*.-.6.%.-.rX-.1.*.+XC.` ",
"B q 8X+X-.%.:.:.%.%.:.-..Xn XXrXrXqX XqXrXtXrX$X$Xn oXwX4.2.qXrXqXtXpXiXrXs.a. X).2.*. XwXqXqXrXrXoXa.oXpXuXuXpXgXgXpXuXgXiXp.' ",
"r q i c 0 0 p p f p k s v m s 8 s p i p A N k z J p.k k f k S f u f l u A s.n N N S A N ~ S S b.) b.e.J D z l R W W R R W / r.s ",
"&X=X}.*X=X{.a.a.=X-XA.n.N.D.Q.Q.~.~.c.s.>X;X^.J &XNX[.Q.:X>Xm., BXG.H.N.&XCXBX-XBX&X&Xe.a.&X:X-X_.D.R.D.m.D.&Xr.s.BXBXE.P.-XE.I.",
"$.$.-.#XXX4.c.h..X.XF ) .X@.' #.#.$.f.V.0.,.} qX2X*.wXqX@XlX(.t.8X2X$XiX7X@X@XcX8XwXjXV.V wXJXkXDX2X] { { ] 4.f.N.vXzXaXzXzX@XkX",
"%.3.8.8.:.tXm c.XX*.+X|. X|.|.|.|.XXB a.0.} } MXlXeXwXwXwXgX).s.oX2XjXhXhXjXkX$X$XwX@XC./.).OX).4X5X).[ [ [ 2.m.~.lX%XyXaXiX#XiX",
"g ~ d x z O.q B ~ l l g T / T R E E F M Q W L ` _ ' ' / ~ / V 3 _ / / &.#.&.&.&.|.].}.i.h ! (.] _ _ ' ` U U { n./.3.yX6.6.6.rXqX",
"= . , < 1 & d.s.b i.s.n.l.p.n n p.n k.u.s.s.s.n e e x.u.r.x.C.T.b r.k.k.k.q p.h.x.C Y.T.l.j.j.M.z.z.z.l.k.k.h.Z.C.H H H BXA Z Z ",
"A.a.eXOX'.]  X X*.[ *.pXNXF.oX<X1X+XoXoX+X+XoXOX*XZ.pXpXMXtXpXkXxXpXwXMXvXZ.9XvX7X2X2XnXkXzX1X8XPXSXE.PXPXAX9X9XAXAX7XUXUXUXy.L.",
"a.B P [ ).wXqXqX2.} P ,.{.g.' ] *.*.] [ *. X*.[ !.s.3.,.,.4.eX2.MX4.<.,.7.s..X5.qXpX2.2.3.1.2.<.7.ZXL.w.iXpX6.rXtXtX7.uXIXLXC.].",
"a.B <.[ [ [ ' Q Q } ,.<.*Xg.[ ' &.&.|.&.&.&.*.[ _ n.5.,.5.5.<.<.5.5.5.0.9.s..X5.2.3.3.2.3.4.4.5.7.>XM.q.uXsXsXGXHXuXtX7.w.HXA.].",
", > u c & % y y i p v A l.m g N f f f p f f A l G S.S f p f f k l s g T D k.R  .) ) O./ E  .E +.;.L.j.>.X. .;.:.>.>.X.o.>.:.p.D "
};
